<svg xmlns="http://www.w3.org/2000/svg" xmlns:xlink="http://www.w3.org/1999/xlink" width="312" zoomAndPan="magnify" viewBox="0 0 234 428.99999" height="572" preserveAspectRatio="xMidYMid meet" version="1.0"><defs><clipPath id="18b0a6ea6e"><path d="M 72.933594 0 L 227.007812 0 L 227.007812 177.90625 L 72.933594 177.90625 Z M 72.933594 0 " clip-rule="nonzero"/></clipPath><clipPath id="2471a64282"><path d="M 227.007812 177.90625 L 72.933594 88.949219 L 227.007812 -0.0078125 Z M 227.007812 177.90625 " clip-rule="nonzero"/></clipPath><clipPath id="4cdb30213f"><path d="M 0 292.5625 L 234 292.5625 L 234 428 L 0 428 Z M 0 292.5625 " clip-rule="nonzero"/></clipPath><clipPath id="9230cb4ef5"><path d="M 111.5 302.527344 L 232.53125 302.527344 L 232.53125 423.800781 L 111.5 423.800781 Z M 111.5 302.527344 " clip-rule="nonzero"/></clipPath><clipPath id="feeed51915"><path d="M 232.53125 302.578125 L 232.53125 423.800781 L 111.5 423.800781 Z M 232.53125 302.578125 " clip-rule="nonzero"/></clipPath><clipPath id="d521ce16d8"><path d="M 112.964844 322.613281 L 200.066406 322.613281 L 200.066406 409.890625 L 112.964844 409.890625 Z M 112.964844 322.613281 " clip-rule="nonzero"/></clipPath><clipPath id="8a1eba6a45"><path d="M 200.066406 322.648438 L 200.066406 409.890625 L 112.964844 409.890625 Z M 200.066406 322.648438 " clip-rule="nonzero"/></clipPath><clipPath id="7deef4e409"><path d="M 76.988281 345.589844 L 155.046875 345.589844 L 155.046875 423.804688 L 76.988281 423.804688 Z M 76.988281 345.589844 " clip-rule="nonzero"/></clipPath><clipPath id="808680d8a5"><path d="M 155.046875 345.621094 L 155.046875 423.804688 L 76.988281 423.804688 Z M 155.046875 345.621094 " clip-rule="nonzero"/></clipPath><clipPath id="0d7e00fce7"><path d="M 0 120.800781 L 233.992188 120.800781 L 233.992188 391.003906 L 0 391.003906 Z M 0 120.800781 " clip-rule="nonzero"/></clipPath><clipPath id="6a1d36d097"><path d="M -0.00390625 120.800781 L 233.992188 255.902344 L -0.00390625 391.003906 Z M -0.00390625 120.800781 " clip-rule="nonzero"/></clipPath><clipPath id="269b36446d"><path d="M 1.464844 129.441406 L 13.863281 129.441406 L 13.863281 382.367188 L 1.464844 382.367188 Z M 1.464844 129.441406 " clip-rule="nonzero"/></clipPath><clipPath id="e211e2791d"><path d="M 0.0585938 0 L 148.558594 0 L 148.558594 89 L 0.0585938 89 Z M 0.0585938 0 " clip-rule="nonzero"/></clipPath></defs><g clip-path="url(#18b0a6ea6e)"><g clip-path="url(#2471a64282)"><path fill="#ffffff" d="M 72.933594 177.90625 L 72.933594 -0.0078125 L 227.007812 -0.0078125 L 227.007812 177.90625 Z M 72.933594 177.90625 " fill-opacity="1" fill-rule="nonzero"/></g></g><g clip-path="url(#4cdb30213f)"><path fill="#ffffff" d="M 0 427.933594 L 233.933594 427.933594 L 233.929688 292.871094 Z M 207.046875 401.050781 L 100.316406 401.050781 L 207.046875 339.429688 Z M 207.046875 401.050781 " fill-opacity="1" fill-rule="nonzero"/></g><g clip-path="url(#9230cb4ef5)"><g clip-path="url(#feeed51915)"><path fill="#ffffff" d="M 111.5 423.800781 L 111.5 302.527344 L 232.53125 302.527344 L 232.53125 423.800781 Z M 111.5 423.800781 " fill-opacity="1" fill-rule="nonzero"/></g></g><g clip-path="url(#d521ce16d8)"><g clip-path="url(#8a1eba6a45)"><path fill="#ffffff" d="M 112.964844 409.890625 L 112.964844 322.613281 L 200.066406 322.613281 L 200.066406 409.890625 Z M 112.964844 409.890625 " fill-opacity="1" fill-rule="nonzero"/></g></g><g clip-path="url(#7deef4e409)"><g clip-path="url(#808680d8a5)"><path fill="#ffffff" d="M 76.988281 423.804688 L 76.988281 345.589844 L 155.046875 345.589844 L 155.046875 423.804688 Z M 76.988281 423.804688 " fill-opacity="1" fill-rule="nonzero"/></g></g><g clip-path="url(#0d7e00fce7)"><g clip-path="url(#6a1d36d097)"><path fill="#ffffff" d="M 233.992188 120.800781 L 233.992188 391.003906 L -0.00390625 391.003906 L -0.00390625 120.800781 Z M 233.992188 120.800781 " fill-opacity="1" fill-rule="nonzero"/></g></g><g clip-path="url(#269b36446d)"><path fill="#ffffff" d="M 1.464844 129.441406 L 13.863281 129.441406 L 13.863281 382.386719 L 1.464844 382.386719 Z M 1.464844 129.441406 " fill-opacity="1" fill-rule="nonzero"/></g><g clip-path="url(#e211e2791d)"><path fill="#ffffff" d="M 148.488281 -0.00390625 L 74.28125 0.015625 L 0.078125 0.0390625 C 0.121094 29.675781 0.164062 59.308594 0.207031 88.945312 C 49.636719 59.296875 99.0625 29.644531 148.488281 -0.00390625 " fill-opacity="1" fill-rule="nonzero"/></g></svg>