<svg xmlns="http://www.w3.org/2000/svg" xmlns:xlink="http://www.w3.org/1999/xlink" width="208" zoomAndPan="magnify" viewBox="0 0 156 370.499989" height="494" preserveAspectRatio="xMidYMid meet" version="1.0"><defs><g/><clipPath id="acf89b7c3f"><path d="M 54.644531 92.214844 L 136.871094 92.214844 L 136.871094 187.167969 L 54.644531 187.167969 Z M 54.644531 92.214844 " clip-rule="nonzero"/></clipPath><clipPath id="d99ea202f4"><path d="M 136.871094 187.167969 L 54.644531 139.691406 L 136.871094 92.214844 Z M 136.871094 187.167969 " clip-rule="nonzero"/></clipPath><clipPath id="4f57ed2f0c"><path d="M 15.71875 248.359375 L 140.199219 248.359375 L 140.199219 320.523438 L 15.71875 320.523438 Z M 15.71875 248.359375 " clip-rule="nonzero"/></clipPath><clipPath id="62e24d11b4"><path d="M 75.222656 253.683594 L 139.816406 253.683594 L 139.816406 318.40625 L 75.222656 318.40625 Z M 75.222656 253.683594 " clip-rule="nonzero"/></clipPath><clipPath id="0e02578929"><path d="M 139.816406 253.707031 L 139.816406 318.40625 L 75.222656 318.40625 Z M 139.816406 253.707031 " clip-rule="nonzero"/></clipPath><clipPath id="1a0f4e8d4c"><path d="M 76.003906 264.398438 L 122.492188 264.398438 L 122.492188 310.976562 L 76.003906 310.976562 Z M 76.003906 264.398438 " clip-rule="nonzero"/></clipPath><clipPath id="d5c3bac1e6"><path d="M 122.492188 264.414062 L 122.492188 310.976562 L 76.003906 310.976562 Z M 122.492188 264.414062 " clip-rule="nonzero"/></clipPath><clipPath id="2f6d86b950"><path d="M 23.933594 259.445312 L 136.898438 259.445312 L 136.898438 318.398438 L 23.933594 318.398438 Z M 23.933594 259.445312 " clip-rule="nonzero"/></clipPath><clipPath id="afe08acb98"><path d="M 136.898438 259.542969 L 136.898438 318.398438 L 23.933594 318.398438 Z M 136.898438 259.542969 " clip-rule="nonzero"/></clipPath><clipPath id="06ab8610b9"><path d="M 15.707031 156.691406 L 140.59375 156.691406 L 140.59375 300.898438 L 15.707031 300.898438 Z M 15.707031 156.691406 " clip-rule="nonzero"/></clipPath><clipPath id="ed176d010f"><path d="M 15.707031 156.691406 L 140.59375 228.796875 L 15.707031 300.898438 Z M 15.707031 156.691406 " clip-rule="nonzero"/></clipPath><clipPath id="81d4f4c1a6"><path d="M 16.5 161.300781 L 23.117188 161.300781 L 23.117188 296.289062 L 16.5 296.289062 Z M 16.5 161.300781 " clip-rule="nonzero"/></clipPath><clipPath id="4bc8b0dc91"><path d="M 15 103 L 48 103 L 48 140 L 15 140 Z M 15 103 " clip-rule="nonzero"/></clipPath><clipPath id="d9c42ecf90"><path d="M 0.105469 112.285156 L 31.753906 94.027344 L 47.566406 121.433594 L 15.917969 139.695312 Z M 0.105469 112.285156 " clip-rule="nonzero"/></clipPath><clipPath id="4fb063b4a0"><path d="M 15.917969 139.695312 L 15.929688 103.15625 L 47.566406 121.433594 Z M 15.917969 139.695312 " clip-rule="nonzero"/></clipPath><clipPath id="87a6f1d8d0"><path d="M 15.917969 0 L 136.894531 0 L 136.894531 139.695312 L 15.917969 139.695312 Z M 15.917969 0 " clip-rule="nonzero"/></clipPath><clipPath id="d252a79e62"><path d="M 15.917969 0 L 136.894531 69.847656 L 15.917969 139.695312 Z M 15.917969 0 " clip-rule="nonzero"/></clipPath><clipPath id="622aca77b0"><path d="M 16.5 0 L 136.875 0 L 136.875 69.847656 L 16.5 69.847656 Z M 16.5 0 " clip-rule="nonzero"/></clipPath><clipPath id="2a0e7c8fc5"><path d="M 16.5 0 L 23.117188 0 L 23.117188 134.988281 L 16.5 134.988281 Z M 16.5 0 " clip-rule="nonzero"/></clipPath></defs><g clip-path="url(#acf89b7c3f)"><g clip-path="url(#d99ea202f4)"><path fill="#ffffff" d="M 54.644531 187.167969 L 54.644531 92.214844 L 136.871094 92.214844 L 136.871094 187.167969 Z M 54.644531 187.167969 " fill-opacity="1" fill-rule="nonzero"/></g></g><g clip-path="url(#4f57ed2f0c)"><path fill="#ffffff" d="M 15.71875 320.605469 L 140.5625 320.605469 L 140.5625 248.527344 Z M 126.214844 306.261719 L 69.253906 306.261719 L 126.214844 273.375 Z M 126.214844 306.261719 " fill-opacity="1" fill-rule="nonzero"/></g><g clip-path="url(#62e24d11b4)"><g clip-path="url(#0e02578929)"><path fill="#ffffff" d="M 75.222656 318.40625 L 75.222656 253.683594 L 139.816406 253.683594 L 139.816406 318.40625 Z M 75.222656 318.40625 " fill-opacity="1" fill-rule="nonzero"/></g></g><g clip-path="url(#1a0f4e8d4c)"><g clip-path="url(#d5c3bac1e6)"><path fill="#ffffff" d="M 76.003906 310.976562 L 76.003906 264.398438 L 122.492188 264.398438 L 122.492188 310.976562 Z M 76.003906 310.976562 " fill-opacity="1" fill-rule="nonzero"/></g></g><g clip-path="url(#2f6d86b950)"><g clip-path="url(#afe08acb98)"><path fill="#ffffff" d="M 23.933594 318.398438 L 23.933594 259.5625 L 136.898438 259.5625 L 136.898438 318.398438 Z M 23.933594 318.398438 " fill-opacity="1" fill-rule="nonzero"/></g></g><g clip-path="url(#06ab8610b9)"><g clip-path="url(#ed176d010f)"><path fill="#ffffff" d="M 140.59375 156.691406 L 140.59375 300.898438 L 15.707031 300.898438 L 15.707031 156.691406 Z M 140.59375 156.691406 " fill-opacity="1" fill-rule="nonzero"/></g></g><g clip-path="url(#81d4f4c1a6)"><path fill="#ffffff" d="M 16.5 161.300781 L 23.117188 161.300781 L 23.117188 296.300781 L 16.5 296.300781 Z M 16.5 161.300781 " fill-opacity="1" fill-rule="nonzero"/></g><g clip-path="url(#4bc8b0dc91)"><g clip-path="url(#d9c42ecf90)"><g clip-path="url(#4fb063b4a0)"><path fill="#ffffff" d="M 0.105469 112.285156 L 31.753906 94.027344 L 47.566406 121.433594 L 15.917969 139.695312 Z M 0.105469 112.285156 " fill-opacity="1" fill-rule="nonzero"/></g></g></g><g clip-path="url(#87a6f1d8d0)"><g clip-path="url(#d252a79e62)"><path fill="#ffffff" d="M 136.894531 0 L 136.894531 139.695312 L 15.917969 139.695312 L 15.917969 0 Z M 136.894531 0 " fill-opacity="1" fill-rule="nonzero"/></g></g><g clip-path="url(#622aca77b0)"><path fill="#ffffff" d="M 16.5 0 L 136.824219 0 L 136.824219 69.847656 L 16.5 69.847656 Z M 16.5 0 " fill-opacity="1" fill-rule="nonzero"/></g><g clip-path="url(#2a0e7c8fc5)"><path fill="#ffffff" d="M 16.5 0 L 23.117188 0 L 23.117188 135 L 16.5 135 Z M 16.5 0 " fill-opacity="1" fill-rule="nonzero"/></g><g fill="#ffffff" fill-opacity="1"><g transform="translate(16.586386, 357.293424)"><g><path d="M 19.578125 -18.65625 L 19.578125 -14.921875 L 4.65625 -14.921875 L 4.65625 -11.1875 L 15.859375 -11.1875 C 16.535156 -11.1875 17.15625 -11.019531 17.71875 -10.6875 C 18.289062 -10.351562 18.742188 -9.898438 19.078125 -9.328125 C 19.410156 -8.765625 19.578125 -8.140625 19.578125 -7.453125 L 19.578125 -3.734375 C 19.578125 -3.046875 19.410156 -2.414062 19.078125 -1.84375 C 18.742188 -1.28125 18.289062 -0.832031 17.71875 -0.5 C 17.15625 -0.164062 16.535156 0 15.859375 0 L 0.9375 0 L 0.9375 -3.734375 L 15.859375 -3.734375 L 15.859375 -7.453125 L 4.65625 -7.453125 C 3.976562 -7.453125 3.351562 -7.617188 2.78125 -7.953125 C 2.21875 -8.296875 1.769531 -8.75 1.4375 -9.3125 C 1.101562 -9.882812 0.9375 -10.507812 0.9375 -11.1875 L 0.9375 -14.921875 C 0.9375 -15.609375 1.101562 -16.234375 1.4375 -16.796875 C 1.769531 -17.359375 2.21875 -17.804688 2.78125 -18.140625 C 3.351562 -18.484375 3.976562 -18.65625 4.65625 -18.65625 Z M 19.578125 -18.65625 "/></g></g></g><g fill="#ffffff" fill-opacity="1"><g transform="translate(37.106714, 357.293424)"><g><path d="M 15.859375 0 L 4.65625 0 C 3.976562 0 3.351562 -0.164062 2.78125 -0.5 C 2.21875 -0.832031 1.769531 -1.28125 1.4375 -1.84375 C 1.101562 -2.414062 0.9375 -3.046875 0.9375 -3.734375 L 0.9375 -18.65625 L 4.65625 -18.65625 L 4.65625 -3.734375 L 15.859375 -3.734375 L 15.859375 -18.65625 L 19.578125 -18.65625 L 19.578125 -3.734375 C 19.578125 -3.046875 19.410156 -2.414062 19.078125 -1.84375 C 18.742188 -1.28125 18.289062 -0.832031 17.71875 -0.5 C 17.15625 -0.164062 16.535156 0 15.859375 0 Z M 15.859375 0 "/></g></g></g><g fill="#ffffff" fill-opacity="1"><g transform="translate(57.627043, 357.293424)"><g><path d="M 15.859375 0 L 4.65625 0 C 3.976562 0 3.351562 -0.164062 2.78125 -0.5 C 2.21875 -0.832031 1.769531 -1.28125 1.4375 -1.84375 C 1.101562 -2.414062 0.9375 -3.046875 0.9375 -3.734375 L 0.9375 -7.453125 L 4.65625 -7.453125 L 4.65625 -3.734375 L 15.859375 -3.734375 L 15.859375 -14.921875 L 8.390625 -14.921875 L 8.390625 -18.65625 L 19.578125 -18.65625 L 19.578125 -3.734375 C 19.578125 -3.066406 19.410156 -2.445312 19.078125 -1.875 C 18.742188 -1.3125 18.296875 -0.859375 17.734375 -0.515625 C 17.179688 -0.171875 16.554688 0 15.859375 0 Z M 15.859375 0 "/></g></g></g><g fill="#ffffff" fill-opacity="1"><g transform="translate(78.147372, 357.293424)"><g><path d="M 19.578125 0 L 0.9375 0 L 0.9375 -3.734375 L 8.390625 -3.734375 L 8.390625 -14.921875 L 0.9375 -14.921875 L 0.9375 -18.65625 L 19.578125 -18.65625 L 19.578125 -14.921875 L 12.125 -14.921875 L 12.125 -3.734375 L 19.578125 -3.734375 Z M 19.578125 0 "/></g></g></g><g fill="#ffffff" fill-opacity="1"><g transform="translate(98.6677, 357.293424)"><g><path d="M 19.578125 -18.65625 L 19.578125 -14.921875 L 12.125 -14.921875 L 12.125 0 L 8.390625 0 L 8.390625 -14.921875 L 0.9375 -14.921875 L 0.9375 -18.65625 Z M 19.578125 -18.65625 "/></g></g></g><g fill="#ffffff" fill-opacity="1"><g transform="translate(119.188029, 357.293424)"><g><path d="M 15.859375 -11.1875 L 15.859375 -18.65625 L 19.578125 -18.65625 L 19.578125 0 L 15.859375 0 L 15.859375 -7.453125 L 4.65625 -7.453125 L 4.65625 0 L 0.9375 0 L 0.9375 -18.65625 L 4.65625 -18.65625 L 4.65625 -11.1875 Z M 15.859375 -11.1875 "/></g></g></g></svg>