<svg xmlns="http://www.w3.org/2000/svg" xmlns:xlink="http://www.w3.org/1999/xlink" width="384" zoomAndPan="magnify" viewBox="0 0 288 530" height="711" preserveAspectRatio="xMidYMid meet" version="1.0"><defs><clipPath id="97670175bd"><path d="M 95.160156 172.636719 L 249.105469 172.636719 L 249.105469 350.402344 L 95.160156 350.402344 Z M 95.160156 172.636719 " clip-rule="nonzero"/></clipPath><clipPath id="f6931b4ab0"><path d="M 249.105469 350.402344 L 95.160156 261.519531 L 249.105469 172.636719 Z M 249.105469 350.402344 " clip-rule="nonzero"/></clipPath><clipPath id="0025654387"><path d="M 22.285156 465 L 256.089844 465 L 256.089844 600.601562 L 22.285156 600.601562 Z M 22.285156 465 " clip-rule="nonzero"/></clipPath><clipPath id="3b8d441a7b"><path d="M 133.691406 474.96875 L 254.699219 474.96875 L 254.699219 547.1875 L 133.691406 547.1875 Z M 133.691406 474.96875 " clip-rule="nonzero"/></clipPath><clipPath id="2d7c530119"><path d="M 254.621094 474.96875 L 254.621094 547.1875 L 133.691406 547.1875 Z M 254.621094 474.96875 " clip-rule="nonzero"/></clipPath><clipPath id="254df45571"><path d="M 135.15625 495 L 222.1875 495 L 222.1875 582.195312 L 135.15625 582.195312 Z M 135.15625 495 " clip-rule="nonzero"/></clipPath><clipPath id="d7b4ff8155"><path d="M 222.1875 495.023438 L 222.1875 582.195312 L 135.15625 582.195312 Z M 222.1875 495.023438 " clip-rule="nonzero"/></clipPath><clipPath id="5693668b3f"><path d="M 99.210938 517.949219 L 177.203125 517.949219 L 177.203125 596.097656 L 99.210938 596.097656 Z M 99.210938 517.949219 " clip-rule="nonzero"/></clipPath><clipPath id="682abc29af"><path d="M 177.203125 517.980469 L 177.203125 596.097656 L 99.210938 596.097656 Z M 177.203125 517.980469 " clip-rule="nonzero"/></clipPath><clipPath id="8b023f7faa"><path d="M 22.28125 293.347656 L 256.082031 293.347656 L 256.082031 563.324219 L 22.28125 563.324219 Z M 22.28125 293.347656 " clip-rule="nonzero"/></clipPath><clipPath id="f863cd4bab"><path d="M 22.28125 293.347656 L 256.082031 428.335938 L 22.28125 563.324219 Z M 22.28125 293.347656 " clip-rule="nonzero"/></clipPath><clipPath id="3b25b59bde"><path d="M 23.75 302.726562 L 36.136719 302.726562 L 36.136719 555.445312 L 23.75 555.445312 Z M 23.75 302.726562 " clip-rule="nonzero"/></clipPath><clipPath id="1536e6404a"><path d="M 22.660156 0 L 249.144531 0 L 249.144531 261.527344 L 22.660156 261.527344 Z M 22.660156 0 " clip-rule="nonzero"/></clipPath><clipPath id="50a439f7a3"><path d="M 22.660156 0 L 249.144531 130.765625 L 22.660156 261.527344 Z M 22.660156 0 " clip-rule="nonzero"/></clipPath><clipPath id="9e1e295e7d"><path d="M 22.667969 0 L 249 0 L 249 130.765625 L 22.667969 130.765625 Z M 22.667969 0 " clip-rule="nonzero"/></clipPath><clipPath id="d10cf54bfe"><path d="M 23.75 0 L 36.136719 0 L 36.136719 252.71875 L 23.75 252.71875 Z M 23.75 0 " clip-rule="nonzero"/></clipPath><clipPath id="7e793ec207"><path d="M 22 238 L 43 238 L 43 262 L 22 262 Z M 22 238 " clip-rule="nonzero"/></clipPath><clipPath id="e535b01d12"><path d="M 12.789062 244.417969 L 32.546875 233.019531 L 42.414062 250.128906 L 22.660156 261.523438 Z M 12.789062 244.417969 " clip-rule="nonzero"/></clipPath><clipPath id="6ec2a9b802"><path d="M 22.660156 261.523438 L 22.667969 238.71875 L 42.414062 250.128906 Z M 22.660156 261.523438 " clip-rule="nonzero"/></clipPath><clipPath id="cdaca769ed"><path d="M 0.121094 536 L 287.878906 536 L 287.878906 540 L 0.121094 540 Z M 0.121094 536 " clip-rule="nonzero"/></clipPath></defs><g clip-path="url(#97670175bd)"><g clip-path="url(#f6931b4ab0)"><path fill="#ffffff" d="M 95.160156 350.402344 L 95.160156 172.636719 L 249.105469 172.636719 L 249.105469 350.402344 Z M 95.160156 350.402344 " fill-opacity="1" fill-rule="nonzero"/></g></g><g clip-path="url(#0025654387)"><path fill="#ffffff" d="M 22.285156 600.222656 L 256.023438 600.222656 L 256.023438 465.273438 Z M 229.164062 573.363281 L 122.519531 573.363281 L 229.164062 511.792969 Z M 229.164062 573.363281 " fill-opacity="1" fill-rule="nonzero"/></g><g clip-path="url(#3b8d441a7b)"><g clip-path="url(#2d7c530119)"><path fill="#ffffff" d="M 133.691406 547.1875 L 133.691406 474.96875 L 254.699219 474.96875 L 254.699219 547.1875 Z M 133.691406 547.1875 " fill-opacity="1" fill-rule="nonzero"/></g></g><g clip-path="url(#254df45571)"><g clip-path="url(#d7b4ff8155)"><path fill="#ffffff" d="M 135.15625 582.195312 L 135.15625 494.988281 L 222.1875 494.988281 L 222.1875 582.195312 Z M 135.15625 582.195312 " fill-opacity="1" fill-rule="nonzero"/></g></g><g clip-path="url(#5693668b3f)"><g clip-path="url(#682abc29af)"><path fill="#ffffff" d="M 99.210938 596.097656 L 99.210938 517.949219 L 177.203125 517.949219 L 177.203125 596.097656 Z M 99.210938 596.097656 " fill-opacity="1" fill-rule="nonzero"/></g></g><g clip-path="url(#8b023f7faa)"><g clip-path="url(#f863cd4bab)"><path fill="#ffffff" d="M 256.082031 293.347656 L 256.082031 563.324219 L 22.28125 563.324219 L 22.28125 293.347656 Z M 256.082031 293.347656 " fill-opacity="1" fill-rule="nonzero"/></g></g><g clip-path="url(#3b25b59bde)"><path fill="#ffffff" d="M 23.75 302.726562 L 36.136719 302.726562 L 36.136719 555.464844 L 23.75 555.464844 Z M 23.75 302.726562 " fill-opacity="1" fill-rule="nonzero"/></g><g clip-path="url(#1536e6404a)"><g clip-path="url(#50a439f7a3)"><path fill="#ffffff" d="M 249.144531 0 L 249.144531 261.527344 L 22.660156 261.527344 L 22.660156 0 Z M 249.144531 0 " fill-opacity="1" fill-rule="nonzero"/></g></g><g clip-path="url(#9e1e295e7d)"><path fill="#ffffff" d="M 22.667969 0 L 248.953125 0 L 248.953125 130.765625 L 22.667969 130.765625 Z M 22.667969 0 " fill-opacity="1" fill-rule="nonzero"/></g><g clip-path="url(#d10cf54bfe)"><path fill="#ffffff" d="M 23.75 0 L 36.136719 0 L 36.136719 252.738281 L 23.75 252.738281 Z M 23.75 0 " fill-opacity="1" fill-rule="nonzero"/></g><g clip-path="url(#7e793ec207)"><g clip-path="url(#e535b01d12)"><g clip-path="url(#6ec2a9b802)"><path fill="#ffffff" d="M 12.789062 244.417969 L 32.546875 233.019531 L 42.414062 250.128906 L 22.660156 261.523438 Z M 12.789062 244.417969 " fill-opacity="1" fill-rule="nonzero"/></g></g></g><g clip-path="url(#cdaca769ed)"><path stroke-linecap="butt" transform="matrix(0.749377, 0, 0, 0.749377, 0.119604, 536.274225)" fill="none" stroke-linejoin="miter" d="M 0.0019874 2.000611 L 383.998029 2.000611 " stroke="#893d3d" stroke-width="4" stroke-opacity="1" stroke-miterlimit="4"/></g></svg>